%TF.GenerationSoftware,KiCad,Pcbnew,9.0.7*%
%TF.CreationDate,2026-03-24T17:55:27-04:00*%
%TF.ProjectId,test,74657374-2e6b-4696-9361-645f70636258,rev?*%
%TF.SameCoordinates,Original*%
%TF.FileFunction,Copper,L1,Top*%
%TF.FilePolarity,Positive*%
%FSLAX46Y46*%
G04 Gerber Fmt 4.6, Leading zero omitted, Abs format (unit mm)*
G04 Created by KiCad (PCBNEW 9.0.7) date 2026-03-24 17:55:27*
%MOMM*%
%LPD*%
G01*
G04 APERTURE LIST*
G04 Aperture macros list*
%AMRoundRect*
0 Rectangle with rounded corners*
0 $1 Rounding radius*
0 $2 $3 $4 $5 $6 $7 $8 $9 X,Y pos of 4 corners*
0 Add a 4 corners polygon primitive as box body*
4,1,4,$2,$3,$4,$5,$6,$7,$8,$9,$2,$3,0*
0 Add four circle primitives for the rounded corners*
1,1,$1+$1,$2,$3*
1,1,$1+$1,$4,$5*
1,1,$1+$1,$6,$7*
1,1,$1+$1,$8,$9*
0 Add four rect primitives between the rounded corners*
20,1,$1+$1,$2,$3,$4,$5,0*
20,1,$1+$1,$4,$5,$6,$7,0*
20,1,$1+$1,$6,$7,$8,$9,0*
20,1,$1+$1,$8,$9,$2,$3,0*%
G04 Aperture macros list end*
%TA.AperFunction,ComponentPad*%
%ADD10RoundRect,0.250000X1.050000X-1.050000X1.050000X1.050000X-1.050000X1.050000X-1.050000X-1.050000X0*%
%TD*%
%TA.AperFunction,ComponentPad*%
%ADD11C,2.600000*%
%TD*%
%TA.AperFunction,SMDPad,CuDef*%
%ADD12RoundRect,0.173750X-0.871250X-0.521250X0.871250X-0.521250X0.871250X0.521250X-0.871250X0.521250X0*%
%TD*%
%TA.AperFunction,SMDPad,CuDef*%
%ADD13RoundRect,0.147500X-0.457500X-0.147500X0.457500X-0.147500X0.457500X0.147500X-0.457500X0.147500X0*%
%TD*%
%TA.AperFunction,ComponentPad*%
%ADD14RoundRect,0.250000X-0.550000X-0.550000X0.550000X-0.550000X0.550000X0.550000X-0.550000X0.550000X0*%
%TD*%
%TA.AperFunction,ComponentPad*%
%ADD15RoundRect,0.250000X-1.050000X-1.050000X1.050000X-1.050000X1.050000X1.050000X-1.050000X1.050000X0*%
%TD*%
%TA.AperFunction,ComponentPad*%
%ADD16RoundRect,0.250000X-1.050000X1.050000X-1.050000X-1.050000X1.050000X-1.050000X1.050000X1.050000X0*%
%TD*%
%TA.AperFunction,Conductor*%
%ADD17C,1.000000*%
%TD*%
G04 APERTURE END LIST*
D10*
%TO.P,Xiao1,1,Pin_1*%
%TO.N,Net-(J3-Pin_1)*%
X143672500Y-85545000D03*
D11*
%TO.P,Xiao1,2,Pin_2*%
%TO.N,Net-(Xiao1-Pin_2)*%
X143672500Y-80465000D03*
%TD*%
D12*
%TO.P,U1,1*%
%TO.N,Net-(J4-Pin_1)*%
X166420000Y-80460000D03*
%TO.P,U1,2*%
%TO.N,Net-(Xiao1-Pin_2)*%
X166420000Y-83000000D03*
%TO.P,U1,3*%
%TO.N,Net-(J7-Pin_1)*%
X175500000Y-83000000D03*
%TO.P,U1,4*%
%TO.N,Net-(J6-Pin_1)*%
X175500000Y-80460000D03*
%TD*%
D13*
%TO.P,Q1,1*%
%TO.N,Net-(J10-Pin_1)*%
X195245000Y-79050000D03*
%TO.P,Q1,2*%
%TO.N,Net-(12V_IN1-Pin_2)*%
X195245000Y-80950000D03*
%TO.P,Q1,3*%
%TO.N,Net-(Powe_out1-Pin_2)*%
X197755000Y-80000000D03*
%TD*%
D14*
%TO.P,J10,1,Pin_1*%
%TO.N,Net-(J10-Pin_1)*%
X192500000Y-87500000D03*
%TD*%
%TO.P,J9,1,Pin_1*%
%TO.N,Net-(12V_IN1-Pin_2)*%
X192500000Y-97500000D03*
%TD*%
%TO.P,J8,1,Pin_1*%
%TO.N,Net-(J10-Pin_1)*%
X186500000Y-83000000D03*
%TD*%
%TO.P,J7,1,Pin_1*%
%TO.N,Net-(J7-Pin_1)*%
X179500000Y-83000000D03*
%TD*%
%TO.P,J6,1,Pin_1*%
%TO.N,Net-(J6-Pin_1)*%
X182500000Y-78000000D03*
%TD*%
%TO.P,J5,1,Pin_1*%
%TO.N,Net-(12V_IN1-Pin_1)*%
X182500000Y-71500000D03*
%TD*%
%TO.P,J4,1,Pin_1*%
%TO.N,Net-(J4-Pin_1)*%
X161500000Y-85500000D03*
%TD*%
%TO.P,J3,1,Pin_1*%
%TO.N,Net-(J3-Pin_1)*%
X152500000Y-85500000D03*
%TD*%
D15*
%TO.P,12V_IN1,1,Pin_1*%
%TO.N,Net-(12V_IN1-Pin_1)*%
X172455000Y-66172500D03*
D11*
%TO.P,12V_IN1,2,Pin_2*%
%TO.N,Net-(12V_IN1-Pin_2)*%
X177535000Y-66172500D03*
%TD*%
D16*
%TO.P,Powe_out1,1,Pin_1*%
%TO.N,Net-(12V_IN1-Pin_1)*%
X209500000Y-79455000D03*
D11*
%TO.P,Powe_out1,2,Pin_2*%
%TO.N,Net-(Powe_out1-Pin_2)*%
X209500000Y-84535000D03*
%TD*%
D17*
%TO.N,Net-(12V_IN1-Pin_1)*%
X177782500Y-71500000D02*
X182500000Y-71500000D01*
X172455000Y-66172500D02*
X177782500Y-71500000D01*
X194045000Y-64000000D02*
X209500000Y-79455000D01*
X174627500Y-64000000D02*
X194045000Y-64000000D01*
X172455000Y-66172500D02*
X174627500Y-64000000D01*
%TO.N,Net-(12V_IN1-Pin_2)*%
X183000000Y-90000000D02*
X190500000Y-97500000D01*
X187000000Y-78500000D02*
X183000000Y-82500000D01*
X183000000Y-82500000D02*
X183000000Y-90000000D01*
X187000000Y-73548156D02*
X187000000Y-78500000D01*
X179624344Y-66172500D02*
X187000000Y-73548156D01*
X177535000Y-66172500D02*
X179624344Y-66172500D01*
X190500000Y-97500000D02*
X192500000Y-97500000D01*
%TO.N,Net-(Powe_out1-Pin_2)*%
X204965000Y-80000000D02*
X209500000Y-84535000D01*
X197755000Y-80000000D02*
X204965000Y-80000000D01*
%TO.N,Net-(J10-Pin_1)*%
X190450000Y-79050000D02*
X186500000Y-83000000D01*
X195245000Y-79050000D02*
X190450000Y-79050000D01*
%TO.N,Net-(12V_IN1-Pin_2)*%
X195245000Y-94755000D02*
X195245000Y-80950000D01*
X192500000Y-97500000D02*
X195245000Y-94755000D01*
%TO.N,Net-(J10-Pin_1)*%
X188000000Y-83000000D02*
X192500000Y-87500000D01*
X186500000Y-83000000D02*
X188000000Y-83000000D01*
%TO.N,Net-(J6-Pin_1)*%
X180040000Y-80460000D02*
X182500000Y-78000000D01*
X175500000Y-80460000D02*
X180040000Y-80460000D01*
%TO.N,Net-(J7-Pin_1)*%
X179500000Y-83000000D02*
X175500000Y-83000000D01*
%TO.N,Net-(Xiao1-Pin_2)*%
X163500000Y-89500000D02*
X160500000Y-89500000D01*
X151465000Y-80465000D02*
X143672500Y-80465000D01*
X166500000Y-86500000D02*
X163500000Y-89500000D01*
X166420000Y-86420000D02*
X166500000Y-86500000D01*
X160500000Y-89500000D02*
X151465000Y-80465000D01*
X166420000Y-83000000D02*
X166420000Y-86420000D01*
%TO.N,Net-(J4-Pin_1)*%
X165740000Y-80460000D02*
X166420000Y-80460000D01*
X161500000Y-84700000D02*
X165740000Y-80460000D01*
X161500000Y-85500000D02*
X161500000Y-84700000D01*
%TO.N,Net-(J3-Pin_1)*%
X143672500Y-85545000D02*
X152455000Y-85545000D01*
X152455000Y-85545000D02*
X152500000Y-85500000D01*
%TD*%
M02*
